<svg width="1728" height="934" viewBox="0 0 1728 934" fill="none" xmlns="http://www.w3.org/2000/svg">
<rect x="-4.837" y="118.979" width="1784.33" height="721.882" fill="#81181C"/>
<path d="M692.08 14.0385C899.385 27.2103 1035.6 56.3906 1242.54 72.7335C1462.66 90.1166 1784.66 97.6797 1784.66 97.6797V122.041L-10 135.44V14.0385V1.22088L43.6952 1.22085C43.6952 1.22085 443.714 -1.74221 692.08 14.0385Z" fill="#81181C"/>
<path d="M-10 14.0385V135.44L1784.66 122.041V97.6797C1784.66 97.6797 1462.66 90.1166 1242.54 72.7335C1035.6 56.3906 899.385 27.2103 692.08 14.0385C443.714 -1.74221 43.6952 1.22085 43.6952 1.22085M-10 14.0385L43.6952 1.22085M-10 14.0385V1.22088L43.6952 1.22085" stroke="#81181C" stroke-opacity="0.7"/>
<path d="M1087.74 919.962C880.437 906.79 755.582 885.372 548.637 869.029C328.519 851.646 -4.83694 836.32 -4.83694 836.32V811.959L1789.82 798.56V919.962V932.779L1736.13 932.779C1736.13 932.779 1336.11 935.742 1087.74 919.962Z" fill="#81181C"/>
<path d="M1789.82 919.962V798.56L-4.83694 811.959V836.32C-4.83694 836.32 328.519 851.646 548.637 869.029C755.582 885.372 880.437 906.79 1087.74 919.962C1336.11 935.742 1736.13 932.779 1736.13 932.779M1789.82 919.962L1736.13 932.779M1789.82 919.962V932.779L1736.13 932.779" stroke="#81181C" stroke-opacity="0.7"/>
</svg>
