<svg width="109" height="104" viewBox="0 0 109 104" fill="none" xmlns="http://www.w3.org/2000/svg">
<path d="M57.3287 17.5066L99.6098 10.7119C103.232 10.1298 106.507 13.1611 106.628 17.2082L108.933 94.0029C109.044 97.6853 106.481 100.794 103.156 101.009L58.5698 103.895C55.0442 104.124 52.072 101.022 52.072 97.1146V24.2284C52.072 20.8543 54.3107 17.9916 57.3287 17.5066Z" fill="#81181C"/>
<path d="M51.6713 17.5066L9.39023 10.7119C5.76822 10.1298 2.49337 13.1611 2.37188 17.2082L0.0667379 94.0029C-0.0437998 97.6853 2.51945 100.794 5.84401 101.009L50.4302 103.895C53.9558 104.124 56.9281 101.022 56.9281 97.1146V24.2284C56.9281 20.8543 54.6894 17.9916 51.6713 17.5066Z" fill="#81181C"/>
<path d="M56.3582 15.1042L97.8488 7.3665C99.0737 7.13806 100.199 8.15986 100.235 9.53361L102.398 92.2116C102.43 93.4281 101.587 94.4548 100.489 94.5362L56.8353 97.7739C55.6539 97.8616 54.652 96.8249 54.652 95.5149V17.3368C54.652 16.2316 55.3732 15.2879 56.3582 15.1042Z" fill="white"/>
<path fill-rule="evenodd" clip-rule="evenodd" d="M97.5086 5.13387L56.0181 12.8716C54.048 13.239 52.6055 15.1264 52.6055 17.3368V95.5149C52.6055 98.135 54.6093 100.208 56.9721 100.033L100.626 96.7952C102.821 96.6324 104.507 94.579 104.443 92.1461L102.28 9.46809C102.208 6.7206 99.9584 4.677 97.5086 5.13387ZM97.8488 7.3665L56.3582 15.1042C55.3732 15.2879 54.6519 16.2316 54.6519 17.3368V95.5149C54.6519 96.8249 55.6538 97.8616 56.8352 97.7739L100.489 94.5362C101.587 94.4548 102.43 93.4281 102.398 92.2116L100.234 9.53361C100.199 8.15986 99.0737 7.13807 97.8488 7.3665Z" fill="#81181C"/>
<path d="M57.1047 14.922L92.7263 2.46467C94.0218 2.01162 95.3493 3.05541 95.3886 4.55799L97.5483 87.0919C97.5773 88.2018 96.8746 89.1712 95.8891 89.3808L58.1079 97.4179C56.8458 97.6864 55.6751 96.6164 55.6751 95.1945V17.0808C55.6751 16.0933 56.2536 15.2196 57.1047 14.922Z" fill="white"/>
<path fill-rule="evenodd" clip-rule="evenodd" d="M92.1095 0.305801L56.488 12.7631C54.7858 13.3584 53.6287 15.1057 53.6287 17.0808V95.1945C53.6287 98.0383 55.9702 100.178 58.4943 99.6413L96.2755 91.6042C98.2466 91.1849 99.6519 89.2461 99.5938 87.0264L97.4342 4.49245C97.3556 1.48729 94.7005 -0.600297 92.1095 0.305801ZM92.7263 2.46464L57.1047 14.922C56.2536 15.2196 55.6751 16.0932 55.6751 17.0808V95.1945C55.6751 96.6164 56.8458 97.6864 58.1079 97.4179L95.8891 89.3808C96.8746 89.1711 97.5773 88.2017 97.5483 87.0919L95.3886 4.55797C95.3493 3.05539 94.0218 2.0116 92.7263 2.46464Z" fill="#81181C"/>
<path d="M65.0195 10.5336L71.302 8.26465V26.872L68.1607 24.7397L65.0195 28.2152V10.5336Z" fill="#81181C"/>
<path fill-rule="evenodd" clip-rule="evenodd" d="M62.9731 10.5335C62.9731 9.5538 63.5427 8.68521 64.3845 8.38119L70.667 6.11227C71.2902 5.88721 71.9731 6.00609 72.5037 6.43201C73.0344 6.85793 73.3484 7.53933 73.3484 8.26463V26.8719C73.3484 27.6916 72.948 28.4473 72.3015 28.8477C71.655 29.248 70.8634 29.2305 70.2319 28.8018L68.4664 27.6035L66.4665 29.8161C65.8813 30.4637 65.0011 30.6574 64.2364 30.3069C63.4717 29.9565 62.9731 29.1309 62.9731 28.2151V10.5335ZM71.302 26.8719L68.1608 24.7397L65.0195 28.2151V10.5335L71.302 8.26463V26.8719Z" fill="#81181C"/>
<path d="M51.7332 15.1022L10.532 7.36934C9.30629 7.1393 8.17989 8.1616 8.14414 9.53647L5.99451 92.2125C5.9629 93.4285 6.80535 94.4547 7.90234 94.5366L51.2532 97.7725C52.4349 97.8607 53.4373 96.8239 53.4373 95.5135V17.3344C53.4373 16.2301 52.7173 15.2869 51.7332 15.1022Z" fill="white"/>
<path fill-rule="evenodd" clip-rule="evenodd" d="M10.8742 5.13712L52.0754 12.8699C54.0436 13.2393 55.4837 15.1258 55.4837 17.3344V95.5135C55.4837 98.1343 53.4789 100.208 51.1154 100.031L7.76456 96.7956C5.57061 96.6318 3.8857 94.5793 3.94893 92.1474L6.09855 9.47138C6.17005 6.72163 8.42285 4.67704 10.8742 5.13712ZM10.532 7.36935L51.7332 15.1022C52.7173 15.2869 53.4373 16.2301 53.4373 17.3344V95.5135C53.4373 96.8239 52.4349 97.8607 51.2532 97.7725L7.90232 94.5366C6.80534 94.4547 5.96288 93.4285 5.9945 92.2125L8.14412 9.53648C8.17987 8.16161 9.30628 7.13931 10.532 7.36935Z" fill="#81181C"/>
<path fill-rule="evenodd" clip-rule="evenodd" d="M93.2216 31.9016C93.1132 31.2879 92.5758 30.8877 92.0212 31.0075L59.3937 38.0593C58.8391 38.1792 58.4773 38.7738 58.5857 39.3874C58.694 40.0011 59.2315 40.4013 59.7861 40.2814L92.4135 33.2297C92.9681 33.1098 93.3299 32.5152 93.2216 31.9016Z" fill="#81181C"/>
<path fill-rule="evenodd" clip-rule="evenodd" d="M93.2216 37.1065C93.1132 36.4929 92.5758 36.0927 92.0212 36.2125L59.3937 43.2643C58.8391 43.3842 58.4773 43.9788 58.5857 44.5924C58.694 45.206 59.2315 45.6063 59.7861 45.4864L92.4135 38.4346C92.9681 38.3148 93.3299 37.7202 93.2216 37.1065Z" fill="#81181C"/>
<path fill-rule="evenodd" clip-rule="evenodd" d="M93.2216 58.0102C93.1132 57.3966 92.5758 56.9963 92.0212 57.1162L59.3937 64.168C58.8391 64.2878 58.4773 64.8825 58.5857 65.4961C58.694 66.1097 59.2315 66.51 59.7861 66.3901L92.4135 59.3383C92.9681 59.2184 93.3299 58.6238 93.2216 58.0102Z" fill="#81181C"/>
<path fill-rule="evenodd" clip-rule="evenodd" d="M93.2216 42.4795C93.1132 41.8659 92.5758 41.4656 92.0212 41.5855L59.3937 48.6373C58.8391 48.7571 58.4773 49.3517 58.5857 49.9654C58.694 50.579 59.2315 50.9792 59.7861 50.8594L92.4135 43.8076C92.9681 43.6877 93.3299 43.0931 93.2216 42.4795Z" fill="#81181C"/>
<path fill-rule="evenodd" clip-rule="evenodd" d="M93.2216 63.3832C93.1132 62.7695 92.5758 62.3693 92.0212 62.4891L59.3937 69.5409C58.8391 69.6608 58.4773 70.2554 58.5857 70.869C58.694 71.4826 59.2315 71.8829 59.7861 71.763L92.4135 64.7113C92.9681 64.5914 93.3299 63.9968 93.2216 63.3832Z" fill="#81181C"/>
<path fill-rule="evenodd" clip-rule="evenodd" d="M93.2216 48.0623C93.1132 47.4487 92.5758 47.0485 92.0212 47.1683L59.3937 54.2201C58.8391 54.34 58.4773 54.9346 58.5857 55.5482C58.694 56.1618 59.2315 56.5621 59.7861 56.4422L92.4135 49.3904C92.9681 49.2706 93.3299 48.676 93.2216 48.0623Z" fill="#81181C"/>
<path fill-rule="evenodd" clip-rule="evenodd" d="M93.2216 68.9662C93.1132 68.3525 92.5758 67.9523 92.0212 68.0722L59.3937 75.1239C58.8391 75.2438 58.4773 75.8384 58.5857 76.452C58.694 77.0657 59.2315 77.4659 59.7861 77.3461L92.4135 70.2943C92.9681 70.1744 93.3299 69.5798 93.2216 68.9662Z" fill="#81181C"/>
<path fill-rule="evenodd" clip-rule="evenodd" d="M78.4291 78.0149C78.3332 77.3988 77.8039 76.9854 77.247 77.0916L59.4157 80.4919C58.8589 80.598 58.4852 81.1836 58.5812 81.7997C58.6772 82.4159 59.2064 82.8293 59.7633 82.7231L77.5946 79.3228C78.1515 79.2166 78.5251 78.631 78.4291 78.0149Z" fill="#81181C"/>
<path fill-rule="evenodd" clip-rule="evenodd" d="M12.7347 56.2138C12.7863 55.5912 13.2844 55.1327 13.8471 55.1899L46.9298 58.5479C47.4925 58.605 47.9069 59.156 47.8552 59.7786C47.8036 60.4012 47.3056 60.8596 46.7428 60.8025L13.6601 57.4445C13.0974 57.3874 12.6831 56.8364 12.7347 56.2138Z" fill="#81181C"/>
<path fill-rule="evenodd" clip-rule="evenodd" d="M12.7347 71.3206C12.7863 70.698 13.2844 70.2396 13.8471 70.2967L46.9298 73.6547C47.4925 73.7119 47.9069 74.2629 47.8552 74.8855C47.8036 75.5081 47.3056 75.9665 46.7428 75.9094L13.6601 72.5514C13.0974 72.4943 12.6831 71.9433 12.7347 71.3206Z" fill="#81181C"/>
<path fill-rule="evenodd" clip-rule="evenodd" d="M12.7327 61.6048C12.7706 60.981 13.2584 60.5093 13.8223 60.5512L31.8812 61.8944C32.445 61.9364 32.8713 62.4761 32.8334 63.0999C32.7955 63.7237 32.3077 64.1954 31.7439 64.1534L13.685 62.8102C13.1212 62.7683 12.6948 62.2286 12.7327 61.6048Z" fill="#81181C"/>
<path fill-rule="evenodd" clip-rule="evenodd" d="M12.7329 76.7087C12.7724 76.085 13.2614 75.6148 13.8251 75.6585L39.7421 77.6657C40.3058 77.7094 40.7308 78.2504 40.6913 78.8741C40.6519 79.4978 40.1629 79.968 39.5992 79.9243L13.6822 77.9171C13.1184 77.8734 12.6935 77.3324 12.7329 76.7087Z" fill="#81181C"/>
<path fill-rule="evenodd" clip-rule="evenodd" d="M12.7327 81.5316C12.7706 80.9078 13.2584 80.4361 13.8223 80.4781L31.8812 81.8213C32.445 81.8632 32.8713 82.4029 32.8334 83.0267C32.7955 83.6505 32.3077 84.1222 31.7439 84.0803L13.685 82.7371C13.1212 82.6951 12.6948 82.1554 12.7327 81.5316Z" fill="#81181C"/>
</svg>
