<svg width="169" height="174" viewBox="0 0 169 174" fill="none" xmlns="http://www.w3.org/2000/svg">
<path fill-rule="evenodd" clip-rule="evenodd" d="M48.9055 90.6089L79.8087 102.556C82.2153 103.486 84.869 103.481 87.2722 102.541L117.458 90.736L117.457 113.437C117.458 113.458 117.458 113.479 117.458 113.501C117.458 120.495 102.112 126.164 83.1816 126.164C64.2514 126.164 48.9055 120.495 48.9055 113.501C48.9055 113.494 48.9055 113.487 48.9054 113.479C48.9054 113.465 48.9053 113.451 48.9055 113.437V90.6089Z" fill="white"/>
<path d="M145.32 107.67C146.351 105.72 147.518 103.188 148.505 100.937C149.273 99.1841 151.46 98.798 152.402 100.459C154.05 103.368 155.136 106.838 155.677 109.151C155.849 109.886 155.698 110.682 155.149 111.184C152.823 113.313 149.233 112.743 146.444 111.654C144.948 111.07 144.555 109.116 145.32 107.67Z" fill="#81181C"/>
<path fill-rule="evenodd" clip-rule="evenodd" d="M150.569 100.764C150.274 100.806 149.912 101.03 149.708 101.496C148.717 103.757 147.534 106.326 146.479 108.32C146.256 108.741 146.208 109.236 146.311 109.639C146.409 110.025 146.623 110.27 146.912 110.383C148.217 110.892 149.651 111.255 150.981 111.266C152.301 111.277 153.425 110.943 154.272 110.168C154.366 110.082 154.482 109.849 154.393 109.469C153.87 107.23 152.821 103.898 151.261 101.144C151.072 100.81 150.824 100.728 150.569 100.764ZM150.208 98.071C151.474 97.8912 152.79 98.4465 153.542 99.774L152.402 100.459M150.208 98.071C148.981 98.2452 147.865 99.0908 147.301 100.378L150.208 98.071ZM153.542 99.774C155.278 102.838 156.403 106.447 156.961 108.833C157.215 109.922 157.029 111.282 156.026 112.2C154.547 113.554 152.713 113.999 150.96 113.985C149.215 113.971 147.459 113.504 145.976 112.925C143.498 111.958 143.142 108.944 144.16 107.019C145.168 105.115 146.319 102.619 147.301 100.378" fill="white"/>
<path fill-rule="evenodd" clip-rule="evenodd" d="M148.207 97.3435C148.772 96.868 149.604 96.9537 150.065 97.5347C150.518 98.1046 150.751 98.9419 150.897 99.6387C151.058 100.407 151.168 101.306 151.245 102.209C151.398 104.02 151.424 105.981 151.402 107.239C151.389 107.99 150.787 108.587 150.058 108.573C149.329 108.56 148.748 107.94 148.762 107.189C148.783 105.998 148.757 104.137 148.614 102.445C148.542 101.597 148.443 100.824 148.315 100.211C148.251 99.9054 148.185 99.6634 148.12 99.4841C148.059 99.3148 148.018 99.2534 148.019 99.253C148.019 99.253 148.02 99.2541 148.022 99.2564C147.56 98.6753 147.643 97.8189 148.207 97.3435Z" fill="white"/>
<path fill-rule="evenodd" clip-rule="evenodd" d="M149.822 71.103C150.916 71.103 151.803 72.0159 151.803 73.1421V95.7232C151.803 96.8493 150.916 97.7622 149.822 97.7622C148.728 97.7622 147.842 96.8493 147.842 95.7232V73.1421C147.842 72.0159 148.728 71.103 149.822 71.103Z" fill="white"/>
<path d="M155.273 96.5249C155.273 99.6243 152.832 102.137 149.822 102.137C146.812 102.137 144.372 99.6243 144.372 96.5249C144.372 93.4256 146.812 90.9131 149.822 90.9131C152.832 90.9131 155.273 93.4256 155.273 96.5249Z" fill="white"/>
<path d="M79.423 44.9949L15.4278 71.2494C14.245 71.7346 14.2618 73.4643 15.4538 73.9251L79.6321 98.7356C82.1719 99.7175 84.9723 99.712 87.5085 98.7201L150.914 73.9232C152.1 73.4597 152.116 71.7396 150.94 71.2516L87.7166 45.0119C85.0571 43.9082 82.0868 43.9021 79.423 44.9949Z" fill="white"/>
<path fill-rule="evenodd" clip-rule="evenodd" d="M132.052 75.4821C132.302 76.1874 131.949 76.9677 131.264 77.2251L86.1023 94.1943C85.4173 94.4517 84.6593 94.0886 84.4094 93.3834C84.1594 92.6781 84.512 91.8977 85.197 91.6403L130.359 74.6711C131.044 74.4137 131.802 74.7768 132.052 75.4821Z" fill="#81181C"/>
<path fill-rule="evenodd" clip-rule="evenodd" d="M25.8345 72.3354C26.0856 71.6306 26.8441 71.2688 27.5287 71.5274L42.6222 77.2279C43.3068 77.4864 43.6582 78.2674 43.407 78.9723C43.1559 79.6771 42.3974 80.0389 41.7128 79.7803L26.6193 74.0798C25.9347 73.8213 25.5833 73.0403 25.8345 72.3354Z" fill="#81181C"/>
</svg>
