<svg width="111" height="101" viewBox="0 0 111 101" fill="none" xmlns="http://www.w3.org/2000/svg">
<path fill-rule="evenodd" clip-rule="evenodd" d="M20.7917 23.229C20.7917 10.9062 30.7813 0.916504 43.1042 0.916504C55.4271 0.916504 65.4167 10.9062 65.4167 23.229C65.4167 35.5519 55.4271 45.5415 43.1042 45.5415C30.7813 45.5415 20.7917 35.5519 20.7917 23.229Z" fill="white"/>
<path d="M71.8273 27.1604C73.7636 25.2241 76.9031 25.2241 78.8394 27.1604L90.2084 38.5294L101.577 27.1604C103.514 25.2241 106.653 25.2241 108.589 27.1604C110.526 29.0968 110.526 32.2362 108.589 34.1726L93.7144 49.0476C91.7781 50.9839 88.6387 50.9839 86.7023 49.0476L71.8273 34.1726C69.8909 32.2362 69.8909 29.0968 71.8273 27.1604Z" fill="white"/>
<path fill-rule="evenodd" clip-rule="evenodd" d="M37.4378 55.4582H48.7706C54.1442 55.4581 58.4787 55.4581 61.9886 55.7448C65.6024 56.0401 68.7766 56.6639 71.7134 58.1601C76.3782 60.537 80.1711 64.3298 82.548 68.9947C84.0443 71.9315 84.6681 75.1058 84.9634 78.7197C85.2501 82.2293 85.2501 86.5632 85.25 91.9364V95.1248C85.25 97.8633 83.0301 100.083 80.2917 100.083H5.91671C3.1783 100.083 0.958375 97.8633 0.958375 95.1248V91.9376C0.958327 86.5638 0.958287 82.2295 1.24506 78.7196C1.54033 75.1058 2.16415 71.9315 3.6605 68.9947C6.03732 64.3299 9.82995 60.5371 14.4948 58.1602C17.4316 56.6639 20.606 56.0401 24.2199 55.7448C27.7297 55.4581 32.0642 55.4581 37.4378 55.4582Z" fill="white"/>
</svg>
